<svg width="35" height="35" viewBox="0 0 35 35" fill="none" xmlns="http://www.w3.org/2000/svg">
<path d="M17.4998 2.91663C15.5847 2.91663 13.6884 3.29384 11.919 4.02672C10.1497 4.7596 8.54205 5.8338 7.18786 7.18799C4.45296 9.92289 2.9165 13.6322 2.9165 17.5C2.9165 23.9458 7.10192 29.4145 12.8915 31.3541C13.6207 31.4708 13.854 31.0187 13.854 30.625V28.1604C9.81442 29.0354 8.954 26.2062 8.954 26.2062C8.28317 24.5145 7.33525 24.0625 7.33525 24.0625C6.00817 23.1583 7.43734 23.1875 7.43734 23.1875C8.89567 23.2895 9.66859 24.6895 9.66859 24.6895C10.9373 26.9062 13.0811 26.25 13.9123 25.9C14.0436 24.952 14.4228 24.3104 14.8311 23.9458C11.5936 23.5812 8.19567 22.327 8.19567 16.7708C8.19567 15.152 8.74984 13.8541 9.69775 12.8187C9.55192 12.4541 9.0415 10.9375 9.84359 8.96871C9.84359 8.96871 11.0686 8.57496 13.854 10.4562C15.0061 10.1354 16.2603 9.97496 17.4998 9.97496C18.7394 9.97496 19.9936 10.1354 21.1457 10.4562C23.9311 8.57496 25.1561 8.96871 25.1561 8.96871C25.9582 10.9375 25.4478 12.4541 25.3019 12.8187C26.2498 13.8541 26.804 15.152 26.804 16.7708C26.804 22.3416 23.3915 23.5666 20.1394 23.9312C20.6644 24.3833 21.1457 25.2729 21.1457 26.6291V30.625C21.1457 31.0187 21.379 31.4854 22.1228 31.3541C27.9123 29.4 32.0832 23.9458 32.0832 17.5C32.0832 15.5848 31.706 13.6885 30.9731 11.9192C30.2402 10.1498 29.166 8.54217 27.8118 7.18799C26.4576 5.8338 24.85 4.7596 23.0806 4.02672C21.3113 3.29384 19.4149 2.91663 17.4998 2.91663Z" fill="#757575"/>
</svg>
