<svg width="35" height="35" viewBox="0 0 35 35" fill="none" xmlns="http://www.w3.org/2000/svg">
<path d="M11.3748 2.91663H23.6248C28.2915 2.91663 32.0832 6.70829 32.0832 11.375V23.625C32.0832 25.8682 31.192 28.0197 29.6058 29.6059C28.0195 31.1921 25.8681 32.0833 23.6248 32.0833H11.3748C6.70817 32.0833 2.9165 28.2916 2.9165 23.625V11.375C2.9165 9.13167 3.80765 6.98026 5.39389 5.39401C6.98014 3.80777 9.13155 2.91663 11.3748 2.91663ZM11.0832 5.83329C9.69078 5.83329 8.35543 6.38642 7.37086 7.37098C6.38629 8.35555 5.83317 9.69091 5.83317 11.0833V23.9166C5.83317 26.8187 8.18109 29.1666 11.0832 29.1666H23.9165C25.3089 29.1666 26.6442 28.6135 27.6288 27.6289C28.6134 26.6444 29.1665 25.309 29.1665 23.9166V11.0833C29.1665 8.18121 26.8186 5.83329 23.9165 5.83329H11.0832ZM25.1561 8.02079C25.6396 8.02079 26.1032 8.21285 26.4451 8.55471C26.7869 8.89658 26.979 9.36024 26.979 9.84371C26.979 10.3272 26.7869 10.7908 26.4451 11.1327C26.1032 11.4746 25.6396 11.6666 25.1561 11.6666C24.6726 11.6666 24.209 11.4746 23.8671 11.1327C23.5252 10.7908 23.3332 10.3272 23.3332 9.84371C23.3332 9.36024 23.5252 8.89658 23.8671 8.55471C24.209 8.21285 24.6726 8.02079 25.1561 8.02079ZM17.4998 10.2083C19.4337 10.2083 21.2884 10.9765 22.6558 12.344C24.0233 13.7114 24.7915 15.5661 24.7915 17.5C24.7915 19.4338 24.0233 21.2885 22.6558 22.6559C21.2884 24.0234 19.4337 24.7916 17.4998 24.7916C15.566 24.7916 13.7113 24.0234 12.3439 22.6559C10.9764 21.2885 10.2082 19.4338 10.2082 17.5C10.2082 15.5661 10.9764 13.7114 12.3439 12.344C13.7113 10.9765 15.566 10.2083 17.4998 10.2083ZM17.4998 13.125C16.3395 13.125 15.2267 13.5859 14.4062 14.4064C13.5858 15.2268 13.1248 16.3396 13.1248 17.5C13.1248 18.6603 13.5858 19.7731 14.4062 20.5936C15.2267 21.414 16.3395 21.875 17.4998 21.875C18.6602 21.875 19.773 21.414 20.5934 20.5936C21.4139 19.7731 21.8748 18.6603 21.8748 17.5C21.8748 16.3396 21.4139 15.2268 20.5934 14.4064C19.773 13.5859 18.6602 13.125 17.4998 13.125Z" fill="#757575"/>
</svg>
