<svg width="36" height="34" viewBox="0 0 36 34" fill="none" xmlns="http://www.w3.org/2000/svg">
<path d="M31.552 0.523193C32.5856 0.523193 33.5768 0.912666 34.3076 1.60593C35.0385 2.2992 35.449 3.23947 35.449 4.2199V30.0968C35.449 31.0773 35.0385 32.0175 34.3076 32.7108C33.5768 33.4041 32.5856 33.7935 31.552 33.7935H4.27298C3.23943 33.7935 2.24821 33.4041 1.51738 32.7108C0.786553 32.0175 0.375977 31.0773 0.375977 30.0968V4.2199C0.375977 3.23947 0.786553 2.2992 1.51738 1.60593C2.24821 0.912666 3.23943 0.523193 4.27298 0.523193H31.552ZM30.5778 29.1727V19.3764C30.5778 17.7783 29.9085 16.2457 28.7173 15.1156C27.526 13.9856 25.9103 13.3508 24.2257 13.3508C22.5694 13.3508 20.6404 14.3119 19.7051 15.7536V13.7019H14.2688V29.1727H19.7051V20.0603C19.7051 18.637 20.9132 17.4726 22.4136 17.4726C23.137 17.4726 23.8309 17.7452 24.3425 18.2305C24.8541 18.7158 25.1415 19.374 25.1415 20.0603V29.1727H30.5778ZM7.93617 10.8C8.80435 10.8 9.63698 10.4729 10.2509 9.89053C10.8648 9.30819 11.2097 8.51836 11.2097 7.6948C11.2097 5.97583 9.74828 4.57109 7.93617 4.57109C7.06282 4.57109 6.22524 4.90019 5.60769 5.486C4.99014 6.07181 4.6432 6.86634 4.6432 7.6948C4.6432 9.41377 6.12406 10.8 7.93617 10.8ZM10.6446 29.1727V13.7019H5.24724V29.1727H10.6446Z" fill="#757575"/>
</svg>
